<?xml version="1.0" encoding="utf-8" standalone="no"?>
<!DOCTYPE svg PUBLIC "-//W3C//DTD SVG 1.1//EN"
  "http://www.w3.org/Graphics/SVG/1.1/DTD/svg11.dtd">
<svg xmlns:xlink="http://www.w3.org/1999/xlink" width="505.605pt" height="310.579941pt" viewBox="0 0 505.605 310.579941" xmlns="http://www.w3.org/2000/svg" version="1.1">
 <metadata>
  <rdf:RDF xmlns:dc="http://purl.org/dc/elements/1.1/" xmlns:cc="http://creativecommons.org/ns#" xmlns:rdf="http://www.w3.org/1999/02/22-rdf-syntax-ns#">
   <cc:Work>
    <dc:type rdf:resource="http://purl.org/dc/dcmitype/StillImage"/>
    <dc:date>2026-07-13T11:06:57.936343</dc:date>
    <dc:format>image/svg+xml</dc:format>
    <dc:creator>
     <cc:Agent>
      <dc:title>Matplotlib v3.11.0, https://matplotlib.org/</dc:title>
     </cc:Agent>
    </dc:creator>
   </cc:Work>
  </rdf:RDF>
 </metadata>
 <defs>
  <style type="text/css">*{stroke-linejoin: round; stroke-linecap: butt}</style>
 </defs>
 <g id="figure_1">
  <g id="patch_1">
   <path d="M 0 310.579941 
L 505.605 310.579941 
L 505.605 0 
L 0 0 
z
" style="fill: #ffffff"/>
  </g>
  <g id="axes_1">
   <g id="patch_2">
    <path d="M 123.085 276.005059 
L 498.405 276.005059 
L 498.405 7.2 
L 123.085 7.2 
z
" style="fill: #ffffff"/>
   </g>
   <g id="patch_3">
    <path d="M 123.085 263.786647 
L 232.088912 263.786647 
L 232.088912 243.838219 
L 123.085 243.838219 
z
" clip-path="url(#pdadfe258fe)" style="fill: #005bbb; stroke: #30343b; stroke-width: 0.55; stroke-linejoin: miter"/>
   </g>
   <g id="patch_4">
    <path d="M 123.085 238.851113 
L 263.325323 238.851113 
L 263.325323 218.902685 
L 123.085 218.902685 
z
" clip-path="url(#pdadfe258fe)" style="fill: url(#h4f3ce66868); stroke: #30343b; stroke-width: 0.55; stroke-linejoin: miter"/>
   </g>
   <g id="patch_5">
    <path d="M 123.085 213.915578 
L 298.118328 213.915578 
L 298.118328 193.967151 
L 123.085 193.967151 
z
" clip-path="url(#pdadfe258fe)" style="fill: #8d99ae; stroke: #30343b; stroke-width: 0.55; stroke-linejoin: miter"/>
   </g>
   <g id="patch_6">
    <path d="M 123.085 188.980044 
L 299.612061 188.980044 
L 299.612061 169.031617 
L 123.085 169.031617 
z
" clip-path="url(#pdadfe258fe)" style="fill: #6c757d; stroke: #30343b; stroke-width: 0.55; stroke-linejoin: miter"/>
   </g>
   <g id="patch_7">
    <path d="M 123.085 164.04451 
L 301.935233 164.04451 
L 301.935233 144.096083 
L 123.085 144.096083 
z
" clip-path="url(#pdadfe258fe)" style="fill: #5c677d; stroke: #30343b; stroke-width: 0.55; stroke-linejoin: miter"/>
   </g>
   <g id="patch_8">
    <path d="M 123.085 139.108976 
L 305.108279 139.108976 
L 305.108279 119.160549 
L 123.085 119.160549 
z
" clip-path="url(#pdadfe258fe)" style="fill: #7d8597; stroke: #30343b; stroke-width: 0.55; stroke-linejoin: miter"/>
   </g>
   <g id="patch_9">
    <path d="M 123.085 114.173442 
L 318.402128 114.173442 
L 318.402128 94.225014 
L 123.085 94.225014 
z
" clip-path="url(#pdadfe258fe)" style="fill: #adb5bd; stroke: #30343b; stroke-width: 0.55; stroke-linejoin: miter"/>
   </g>
   <g id="patch_10">
    <path d="M 123.085 89.237907 
L 356.214956 89.237907 
L 356.214956 69.28948 
L 123.085 69.28948 
z
" clip-path="url(#pdadfe258fe)" style="fill: #9aa3ad; stroke: #30343b; stroke-width: 0.55; stroke-linejoin: miter"/>
   </g>
   <g id="patch_11">
    <path d="M 123.085 64.302373 
L 396.348434 64.302373 
L 396.348434 44.353946 
L 123.085 44.353946 
z
" clip-path="url(#pdadfe258fe)" style="fill: url(#hdcfbb1bf02); stroke: #30343b; stroke-width: 0.55; stroke-linejoin: miter"/>
   </g>
   <g id="patch_12">
    <path d="M 123.085 39.366839 
L 441.152797 39.366839 
L 441.152797 19.418412 
L 123.085 19.418412 
z
" clip-path="url(#pdadfe258fe)" style="fill: #b0a8b9; stroke: #30343b; stroke-width: 0.55; stroke-linejoin: miter"/>
   </g>
   <g id="matplotlib.axis_1">
    <g id="xtick_1">
     <g id="line2d_1">
      <path d="M 123.085 276.005059 
L 123.085 7.2 
" clip-path="url(#pdadfe258fe)" style="fill: none; stroke: #d9dee5; stroke-opacity: 0.7; stroke-width: 0.6; stroke-linecap: square"/>
     </g>
     <g id="line2d_2">
      <defs>
       <path id="m7328e9a31a" d="M 0 0 
L 0 3.5 
" style="stroke: #000000; stroke-width: 0.8"/>
      </defs>
      <g>
       <use xlink:href="#m7328e9a31a" x="123.085" y="276.005059" style="stroke: #000000; stroke-width: 0.8"/>
      </g>
     </g>
     <g id="text_1">
      <text style="font-size: 8.5px; font-family: 'Times New Roman'; text-anchor: middle" x="123.085" y="288.898613" transform="rotate(-0 123.085 288.898613)">0</text>
     </g>
    </g>
    <g id="xtick_2">
     <g id="line2d_3">
      <path d="M 192.798754 276.005059 
L 192.798754 7.2 
" clip-path="url(#pdadfe258fe)" style="fill: none; stroke: #d9dee5; stroke-opacity: 0.7; stroke-width: 0.6; stroke-linecap: square"/>
     </g>
     <g id="line2d_4">
      <g>
       <use xlink:href="#m7328e9a31a" x="192.798754" y="276.005059" style="stroke: #000000; stroke-width: 0.8"/>
      </g>
     </g>
     <g id="text_2">
      <text style="font-size: 8.5px; font-family: 'Times New Roman'; text-anchor: middle" x="192.798754" y="288.898613" transform="rotate(-0 192.798754 288.898613)">5</text>
     </g>
    </g>
    <g id="xtick_3">
     <g id="line2d_5">
      <path d="M 262.512507 276.005059 
L 262.512507 7.2 
" clip-path="url(#pdadfe258fe)" style="fill: none; stroke: #d9dee5; stroke-opacity: 0.7; stroke-width: 0.6; stroke-linecap: square"/>
     </g>
     <g id="line2d_6">
      <g>
       <use xlink:href="#m7328e9a31a" x="262.512507" y="276.005059" style="stroke: #000000; stroke-width: 0.8"/>
      </g>
     </g>
     <g id="text_3">
      <text style="font-size: 8.5px; font-family: 'Times New Roman'; text-anchor: middle" x="262.512507" y="288.898613" transform="rotate(-0 262.512507 288.898613)">10</text>
     </g>
    </g>
    <g id="xtick_4">
     <g id="line2d_7">
      <path d="M 332.226261 276.005059 
L 332.226261 7.2 
" clip-path="url(#pdadfe258fe)" style="fill: none; stroke: #d9dee5; stroke-opacity: 0.7; stroke-width: 0.6; stroke-linecap: square"/>
     </g>
     <g id="line2d_8">
      <g>
       <use xlink:href="#m7328e9a31a" x="332.226261" y="276.005059" style="stroke: #000000; stroke-width: 0.8"/>
      </g>
     </g>
     <g id="text_4">
      <text style="font-size: 8.5px; font-family: 'Times New Roman'; text-anchor: middle" x="332.226261" y="288.898613" transform="rotate(-0 332.226261 288.898613)">15</text>
     </g>
    </g>
    <g id="xtick_5">
     <g id="line2d_9">
      <path d="M 401.940014 276.005059 
L 401.940014 7.2 
" clip-path="url(#pdadfe258fe)" style="fill: none; stroke: #d9dee5; stroke-opacity: 0.7; stroke-width: 0.6; stroke-linecap: square"/>
     </g>
     <g id="line2d_10">
      <g>
       <use xlink:href="#m7328e9a31a" x="401.940014" y="276.005059" style="stroke: #000000; stroke-width: 0.8"/>
      </g>
     </g>
     <g id="text_5">
      <text style="font-size: 8.5px; font-family: 'Times New Roman'; text-anchor: middle" x="401.940014" y="288.898613" transform="rotate(-0 401.940014 288.898613)">20</text>
     </g>
    </g>
    <g id="xtick_6">
     <g id="line2d_11">
      <path d="M 471.653768 276.005059 
L 471.653768 7.2 
" clip-path="url(#pdadfe258fe)" style="fill: none; stroke: #d9dee5; stroke-opacity: 0.7; stroke-width: 0.6; stroke-linecap: square"/>
     </g>
     <g id="line2d_12">
      <g>
       <use xlink:href="#m7328e9a31a" x="471.653768" y="276.005059" style="stroke: #000000; stroke-width: 0.8"/>
      </g>
     </g>
     <g id="text_6">
      <text style="font-size: 8.5px; font-family: 'Times New Roman'; text-anchor: middle" x="471.653768" y="288.898613" transform="rotate(-0 471.653768 288.898613)">25</text>
     </g>
    </g>
    <g id="text_7">
     <text style="font-size: 9.5px; font-family: 'Times New Roman'; text-anchor: middle" x="310.745" y="301.329648" transform="rotate(-0 310.745 301.329648)">Mean penalized set RMSE (degrees)</text>
    </g>
   </g>
   <g id="matplotlib.axis_2">
    <g id="ytick_1">
     <g id="line2d_13">
      <defs>
       <path id="m5ca9c9ef0d" d="M 0 0 
L -3.5 0 
" style="stroke: #000000; stroke-width: 0.8"/>
      </defs>
      <g>
       <use xlink:href="#m5ca9c9ef0d" x="123.085" y="253.812433" style="stroke: #000000; stroke-width: 0.8"/>
      </g>
     </g>
     <g id="text_8">
      <text style="font-size: 8.5px; font-family: 'Times New Roman'; text-anchor: end" x="116.085" y="256.759211" transform="rotate(-0 116.085 256.759211)">FROST-DOA</text>
     </g>
    </g>
    <g id="ytick_2">
     <g id="line2d_14">
      <g>
       <use xlink:href="#m5ca9c9ef0d" x="123.085" y="228.876899" style="stroke: #000000; stroke-width: 0.8"/>
      </g>
     </g>
     <g id="text_9">
      <text style="font-size: 8.5px; font-family: 'Times New Roman'; text-anchor: end" x="116.085" y="231.827993" transform="rotate(-0 116.085 231.827993)">SubspaceNet + residual selector</text>
     </g>
    </g>
    <g id="ytick_3">
     <g id="line2d_15">
      <g>
       <use xlink:href="#m5ca9c9ef0d" x="123.085" y="203.941365" style="stroke: #000000; stroke-width: 0.8"/>
      </g>
     </g>
     <g id="text_10">
      <text style="font-size: 8.5px; font-family: 'Times New Roman'; text-anchor: end" x="116.085" y="206.888142" transform="rotate(-0 116.085 206.888142)">SOMP + MDL</text>
     </g>
    </g>
    <g id="ytick_4">
     <g id="line2d_16">
      <g>
       <use xlink:href="#m5ca9c9ef0d" x="123.085" y="179.005831" style="stroke: #000000; stroke-width: 0.8"/>
      </g>
     </g>
     <g id="text_11">
      <text style="font-size: 8.5px; font-family: 'Times New Roman'; text-anchor: end" x="116.085" y="181.952608" transform="rotate(-0 116.085 181.952608)">Root-MUSIC + MDL</text>
     </g>
    </g>
    <g id="ytick_5">
     <g id="line2d_17">
      <g>
       <use xlink:href="#m5ca9c9ef0d" x="123.085" y="154.070296" style="stroke: #000000; stroke-width: 0.8"/>
      </g>
     </g>
     <g id="text_12">
      <text style="font-size: 8.5px; font-family: 'Times New Roman'; text-anchor: end" x="116.085" y="157.02139" transform="rotate(-0 116.085 157.02139)">Toeplitz-MUSIC + MDL</text>
     </g>
    </g>
    <g id="ytick_6">
     <g id="line2d_18">
      <g>
       <use xlink:href="#m5ca9c9ef0d" x="123.085" y="129.134762" style="stroke: #000000; stroke-width: 0.8"/>
      </g>
     </g>
     <g id="text_13">
      <text style="font-size: 8.5px; font-family: 'Times New Roman'; text-anchor: end" x="116.085" y="132.08154" transform="rotate(-0 116.085 132.08154)">ESPRIT + MDL</text>
     </g>
    </g>
    <g id="ytick_7">
     <g id="line2d_19">
      <g>
       <use xlink:href="#m5ca9c9ef0d" x="123.085" y="104.199228" style="stroke: #000000; stroke-width: 0.8"/>
      </g>
     </g>
     <g id="text_14">
      <text style="font-size: 8.5px; font-family: 'Times New Roman'; text-anchor: end" x="116.085" y="107.146005" transform="rotate(-0 116.085 107.146005)">FBSS-MUSIC + MDL</text>
     </g>
    </g>
    <g id="ytick_8">
     <g id="line2d_20">
      <g>
       <use xlink:href="#m5ca9c9ef0d" x="123.085" y="79.263694" style="stroke: #000000; stroke-width: 0.8"/>
      </g>
     </g>
     <g id="text_15">
      <text style="font-size: 8.5px; font-family: 'Times New Roman'; text-anchor: end" x="116.085" y="82.210471" transform="rotate(-0 116.085 82.210471)">MUSIC + MDL</text>
     </g>
    </g>
    <g id="ytick_9">
     <g id="line2d_21">
      <g>
       <use xlink:href="#m5ca9c9ef0d" x="123.085" y="54.32816" style="stroke: #000000; stroke-width: 0.8"/>
      </g>
     </g>
     <g id="text_16">
      <text style="font-size: 8.5px; font-family: 'Times New Roman'; text-anchor: end" x="116.085" y="57.274937" transform="rotate(-0 116.085 57.274937)">DA-MUSIC + MDL</text>
     </g>
    </g>
    <g id="ytick_10">
     <g id="line2d_22">
      <g>
       <use xlink:href="#m5ca9c9ef0d" x="123.085" y="29.392625" style="stroke: #000000; stroke-width: 0.8"/>
      </g>
     </g>
     <g id="text_17">
      <text style="font-size: 8.5px; font-family: 'Times New Roman'; text-anchor: end" x="116.085" y="32.339403" transform="rotate(-0 116.085 32.339403)">SBL + MDL</text>
     </g>
    </g>
   </g>
   <g id="patch_13">
    <path d="M 123.085 276.005059 
L 123.085 7.2 
" style="fill: none; stroke: #000000; stroke-width: 0.8; stroke-linejoin: miter; stroke-linecap: square"/>
   </g>
   <g id="patch_14">
    <path d="M 123.085 276.005059 
L 498.405 276.005059 
" style="fill: none; stroke: #000000; stroke-width: 0.8; stroke-linejoin: miter; stroke-linecap: square"/>
   </g>
   <g id="text_18">
    <text style="font-size: 8.5px; font-family: 'Times New Roman'; text-anchor: start" x="235.574599" y="255.841974" transform="rotate(-0 235.574599 255.841974)">7.82</text>
   </g>
   <g id="text_19">
    <text style="font-size: 8.5px; font-family: 'Times New Roman'; text-anchor: start" x="266.811011" y="230.90644" transform="rotate(-0 266.811011 230.90644)">10.06</text>
   </g>
   <g id="text_20">
    <text style="font-size: 8.5px; font-family: 'Times New Roman'; text-anchor: start" x="301.604015" y="205.970906" transform="rotate(-0 301.604015 205.970906)">12.55</text>
   </g>
   <g id="text_21">
    <text style="font-size: 8.5px; font-family: 'Times New Roman'; text-anchor: start" x="303.097749" y="181.035372" transform="rotate(-0 303.097749 181.035372)">12.66</text>
   </g>
   <g id="text_22">
    <text style="font-size: 8.5px; font-family: 'Times New Roman'; text-anchor: start" x="305.420921" y="156.099837" transform="rotate(-0 305.420921 156.099837)">12.83</text>
   </g>
   <g id="text_23">
    <text style="font-size: 8.5px; font-family: 'Times New Roman'; text-anchor: start" x="308.593966" y="131.164303" transform="rotate(-0 308.593966 131.164303)">13.06</text>
   </g>
   <g id="text_24">
    <text style="font-size: 8.5px; font-family: 'Times New Roman'; text-anchor: start" x="321.887816" y="106.228769" transform="rotate(-0 321.887816 106.228769)">14.01</text>
   </g>
   <g id="text_25">
    <text style="font-size: 8.5px; font-family: 'Times New Roman'; text-anchor: start" x="359.700644" y="81.293235" transform="rotate(-0 359.700644 81.293235)">16.72</text>
   </g>
   <g id="text_26">
    <text style="font-size: 8.5px; font-family: 'Times New Roman'; text-anchor: start" x="399.834122" y="56.357701" transform="rotate(-0 399.834122 56.357701)">19.60</text>
   </g>
   <g id="text_27">
    <text style="font-size: 8.5px; font-family: 'Times New Roman'; text-anchor: start" x="444.638484" y="31.422166" transform="rotate(-0 444.638484 31.422166)">22.81</text>
   </g>
  </g>
 </g>
 <defs>
  <clipPath id="pdadfe258fe">
   <rect x="123.085" y="7.2" width="375.32" height="268.805059"/>
  </clipPath>
 </defs>
 <defs>
  <pattern id="h4f3ce66868" patternUnits="userSpaceOnUse" x="0" y="0" width="72" height="72">
   <rect x="0" y="0" width="73" height="73" fill="#f28e2b"/>
   <path d="M -36 36 
L 36 108 
M -30 30 
L 42 102 
M -24 24 
L 48 96 
M -18 18 
L 54 90 
M -12 12 
L 60 84 
M -6 6 
L 66 78 
M 0 0 
L 72 72 
M 6 -6 
L 78 66 
M 12 -12 
L 84 60 
M 18 -18 
L 90 54 
M 24 -24 
L 96 48 
M 30 -30 
L 102 42 
M 36 -36 
L 108 36 
" style="fill: #30343b; stroke: #30343b; stroke-width: 1.0; stroke-linecap: butt; stroke-linejoin: miter"/>
  </pattern>
  <pattern id="hdcfbb1bf02" patternUnits="userSpaceOnUse" x="0" y="0" width="72" height="72">
   <rect x="0" y="0" width="73" height="73" fill="#7b2cbf"/>
   <path d="M -36 36 
L 36 -36 
M -30 42 
L 42 -30 
M -24 48 
L 48 -24 
M -18 54 
L 54 -18 
M -12 60 
L 60 -12 
M -6 66 
L 66 -6 
M 0 72 
L 72 0 
M 6 78 
L 78 6 
M 12 84 
L 84 12 
M 18 90 
L 90 18 
M 24 96 
L 96 24 
M 30 102 
L 102 30 
M 36 108 
L 108 36 
" style="fill: #30343b; stroke: #30343b; stroke-width: 1.0; stroke-linecap: butt; stroke-linejoin: miter"/>
  </pattern>
 </defs>
</svg>
